<svg xmlns="http://www.w3.org/2000/svg" width="1200.9698" height="545.412" viewBox="0 0 1200.9698 545.412"><defs><style>.a,.b{fill:#fff;}.a{fill-rule:evenodd;}</style></defs><title>brands-01</title><path class="a" d="M1229.18,190.2883c4.4234-25.4915,17.2638-39.711,17.2638-39.711l-25.2617-.3658c-6.4038,4.51-14.6257,11.8738-28.3751,13.5041.6647-1.572,1.0827-2.5553,1.1921-2.8007,1.1456-2.558,5.1907-11.0611,6.3714-17.8654,3.2107-18.507-8.6741-31.8769-23.8242-34.5051-24.0409-4.1715-41.45,16.4508-44.456,33.7781-2.4414,14.0692,3.6717,32.5956,22.7609,42.3377l-3.5265,8.5034c-.7278-.144-1.4581-.2826-2.1927-.41-46.9027-8.1385-76.4613,18.4129-81.7972,49.167-5.9664,34.3828,20.2885,72.1138,66.7375,80.1734,43.6357,7.5712,85.5436-18.5191,93.9186-66.7824,4.439-25.5825-3.7848-36.3552,1.1891-65.023Zm-71.4492-45.567c1.386-7.9838,7.2926-11.8651,11.7826-11.0864a4.51,4.51,0,0,1,3.7636,5.5124c-.3071,1.77-5.0913,13.1817-7.0454,17.9823l-.9773,2.3572c-6.232-3.1356-8.7237-7.847-7.5235-14.7655Zm44.0535,106.4218c-5.0371,29.03-30.9655,49.2028-64.26,43.4261-24.3123-4.2191-46.81-24.2894-42.5125-49.0565,2.0463-11.7938,15.3305-31.2631,43.6352-26.3514.5849.101,1.1579.2054,1.7309.31l-11.0226,26.58,28.4057,1.0981s3.71-8.8563,8.7557-20.8932a97.0249,97.0249,0,0,1,11.2284,4.5484l9.9691-24.0628a120.2416,120.2416,0,0,0-10.7764-5.3408c1.4949-3.5635,2.979-7.1014,4.4137-10.5213a63.387,63.387,0,0,0,21.8575-3.69c-3.7619,21.6815,2.2114,42.9972-1.4246,63.9536Z" transform="translate(-82.6921 -108)"/><path class="b" d="M1156.47,399.0277A127.1922,127.1922,0,1,0,1283.6619,526.22,127.1923,127.1923,0,0,0,1156.47,399.0277ZM1038.6345,526.22a117.226,117.226,0,0,1,6.8328-39.6286l12.18,8.47v95.3732a117.2959,117.2959,0,0,1-19.013-64.2149Zm201.1572,83.3218a117.7269,117.7269,0,0,1-166.644,0,119.1024,119.1024,0,0,1-9.5409-10.7651h64.9693l25.6118-18.5654V479.1633l-25.6118-19.0969h-69.6427a118.4885,118.4885,0,0,1,51.6725-42.4255,117.7266,117.7266,0,0,1,129.1858,25.2569,118.3273,118.3273,0,0,1,14.2143,17.1686h-18.4137l-4.2027,9.2182-12.4881-9.2182h-29.0587L1164.2662,479.13V580.2113l25.3376,18.5655h59.7287A119.113,119.113,0,0,1,1239.7917,609.5416ZM1083.619,491.8929h23.232a11.7973,11.7973,0,0,1,11.7973,11.7973v52.2585a11.7973,11.7973,0,0,1-11.7973,11.7973h-13.9291V498.6484ZM1258.42,585.3538v-35.908h-32.8874v18.3h-14.4537a11.2728,11.2728,0,0,1-11.2727-11.2727v-57.81l-9.4017-6.7706h35.1281v19.6263h30.3533l5.9566-38.0946q1.7068,3.4058,3.2063,6.9314a117.7136,117.7136,0,0,1-6.6288,104.9978Z" transform="translate(-82.6921 -108)"/><path class="a" d="M332.3419,489.5187c2.4567-13.7628-6.7181-24.5763-17.3686-32.4412-14.9088-10.9769-31.7847-17.5309-49.1528-22.61h0v181.539h0c7.7011-6.7174,15.4014-14.2547,22.7745-21.9551,15.7295-17.3677,30.311-35.0624,36.3731-56.3621,2.4582-9.6663,1.1468-20.6444-7.0454-27.1979,7.0454-5.5706,13.4355-12.4529,14.4192-20.9724Zm-30.4125,62.7522a95.9517,95.9517,0,0,1-22.6682,27.1984h0l1.3441-51.9385h0c5.5946-4.26,11.657-8.0287,19.0305-8.684a9.49,9.49,0,0,1,7.5365,3.2769c6.5535,10.3216-1.1464,21.1359-5.2429,30.1472Zm15.2136-66.8483c-1.4756,8.1926-10.487,12.9436-16.8759,16.3848a172.5549,172.5549,0,0,1-19.6618,8.3557h0V457.0775h0c10.3228,3.1135,19.6618,8.3564,28.5086,14.5827,4.0968,3.44,9.667,7.7,8.0291,13.7624Z" transform="translate(-82.6921 -108)"/><path class="a" d="M252.38,615.4109V433.7594l-14.7848,7.6422V538.64h0c-.66,2.8054,1.32,7.0977-1.8159,8.4177a1.5643,1.5643,0,0,1-1.8155-.8248c-6.2722-23.604-8.9129-48.5279-10.0686-74.1128h0l-.4959-22.2828-14.03,10.399v5.4646h0c.8266,23.6566,2.4815,46.8152,6.9476,68.9825h0l-5.624,6.2864h0a55.8046,55.8046,0,0,1-4.9631-9.2645c-7.113-18.858-9.76-39.5362-10.7524-60.8756h0l-12.2419,9.0984h0c1.1583,32.4234,7.2792,63.0265,26.9646,87.3437,3.8048-4.3006,7.61-8.7675,11.4148-12.9031a169.0877,169.0877,0,0,0,8.1051,25.4759c5.4593,12.7376,11.58,25.6408,23.16,35.5661Z" transform="translate(-82.6921 -108)"/><path class="a" d="M363.5348,457.5694l-21.7919-5.4068-3.9319-14.7457-22.2827-5.2434L310.94,416.1167l-52.5933-11.96-51.6112,11.96-4.5871,16.0568-22.2831,5.2434h0c-1.4741,5.0786-2.7851,9.9943-4.0961,14.9095h0l-21.7912,5.243h0c-1.6382,46.3678,11.1419,87.1643,34.2434,123.5377,16.8758,26.0515,42.272,53.5775,70.1253,67.1764,18.8414-9.0117,35.5539-24.0852,50.6277-40.961,36.5362-42.2714,56.5256-91.7527,54.56-149.7531ZM299.3081,597.82c-11.9606,13.4351-25.3965,26.7056-40.47,34.4071-14.4177-7.21-27.0337-19.6617-38.5029-32.2777-29.82-34.8983-49.6448-73.893-52.9217-119.6055a86.1161,86.1161,0,0,1-.3273-11.3053h0l18.5142-4.26,4.26-15.238,22.775-5.4064.1634-.4911,4.0961-15.73,41.2887-9.6667,42.599,9.6667,4.0957,16.0568,23.1026,5.57,3.9326,15.238,18.6785,4.26h0c-.4926,49.8082-20.3175,91.5884-51.2835,128.7814Z" transform="translate(-82.6921 -108)"/><path class="a" d="M91.4353,116.9043a9.57,9.57,0,0,0-8.7432,8.4157V306.0683a9.5684,9.5684,0,0,0,8.7432,8.4151H426.07a9.5684,9.5684,0,0,0,8.7432-8.4151V125.32a9.57,9.57,0,0,0-8.7432-8.4157Zm.9156,191.71a3.8029,3.8029,0,0,1-3.79-3.7932V126.5571a3.7951,3.7951,0,0,1,3.784-3.7841H425.1606a3.7951,3.7951,0,0,1,3.784,3.784V304.8307a3.7951,3.7951,0,0,1-3.7841,3.784Z" transform="translate(-82.6921 -108)"/><polygon class="a" points="80.205 112.584 107.593 112.584 107.593 183.009 80.205 183.009 80.205 112.584 80.205 112.584"/><polygon class="a" points="191.71 112.584 219.098 112.584 219.098 138.015 234.747 138.015 234.747 112.584 262.135 112.584 262.135 183.009 234.747 183.009 234.747 155.621 219.098 155.621 219.098 183.009 191.71 183.009 191.71 112.584 191.71 112.584"/><path class="a" d="M262.6651,140.3791h25.431v44.6916c0,22.9351-15.2392,26.8605-33.0458,26.8605-16.408,0-33.466-3.8966-33.466-27.0606V140.3791h27.3872V186.76c0,7.2415,3.9,8.2114,6.5592,8.2114,2.77,0,7.1344-.3133,7.1344-8.2114V140.3791Z" transform="translate(-82.6921 -108)"/><path class="a" d="M323.3082,156.0289v39.1246h2.74c12.0455,0,13.5867-10.59,13.5867-19.4173,0-9.5594-1.5061-19.7073-13.7729-19.7073Zm-25.4309,54.7744V140.3791h35.4274c21.472,0,35.2544,10.9511,35.2544,35.2123,0,19.6165-11.9041,35.2119-36.4756,35.2119Z" transform="translate(-82.6921 -108)"/><path class="a" d="M176.5911,156.0289v13.6936h6.4626c5.0185,0,6.9408-2.4468,6.9408-6.8536,0-4.57-1.7962-6.84-6.6332-6.84Zm26.9055,16.6362c8.6283,3.7581,12.1559,9.6309,12.1559,18.0782,0,10.4871-7.9181,20.06-23.759,20.06h-42.69V140.3791H192.46c12.466,0,21.0538,6.3815,21.0538,16.6939,0,8.88-4.5718,12.89-10.017,15.5921ZM176.5911,197.11h8.5049c5.0094,0,7.0592-2.444,7.0592-7.8193,0-5.1494-2.4468-7.8305-7.0592-7.8305h-8.5049v15.65Z" transform="translate(-82.6921 -108)"/><path class="a" d="M235.2779,249.9279h31.3v36.6833a66.0038,66.0038,0,0,1-27.9359,5.6933c-10.9678,0-19.0325-1.8067-25.2151-5.61-10.735-6.6032-14.8611-18.1229-14.8611-31.23,0-10.4045,2.7489-19.7659,9.6173-26.8372,6.2524-6.438,16.0114-11.0755,28.4576-11.0755,16.2134,0,24.8574,5.2563,31.0009,10.7571l-11.9455,14.04c-5.3429-4.5992-10.0833-6.7606-16.444-6.7606-9.62,0-13.8044,7.9574-13.6707,19.2-.0676,6.2612.787,11.8713,2.8106,15.4246,3.2436,5.6949,8.53,6.606,14.7112,5.6728V263.6215h-7.825V249.9279Z" transform="translate(-82.6921 -108)"/><polygon class="a" points="268.003 112.584 328.646 112.584 328.646 128.234 311.04 128.234 311.04 183.009 283.653 183.009 283.653 128.234 268.003 128.234 268.003 112.584 268.003 112.584"/><polygon class="a" points="23.475 112.584 50.862 112.584 50.862 165.403 74.337 165.403 74.337 183.009 23.475 183.009 23.475 112.584 23.475 112.584"/><path class="b" d="M892.9239,248.3815c-21.67-12.1412-41.6941-29.8492-63.4387-40.0208a52.6683,52.6683,0,0,0,4.0585-3.82c-9.7057-5.1132-18.2381-8.4189-34.9353-14.2806-5.1264-13.12-29.4095-21.7934-43.3918-20.7972,3.53,1.6966,9.4629,4.4566,11.3891,10.0336a209.4322,209.4322,0,0,0-52.2478-8.4294c-47.8962-1.2739-106.011,12.7492-166.9765,54.3466,18.2712,9.5719,35.4231,13.4232,52.9263,17.7523C636.2888,219.29,668.44,211.7193,709.2449,210.131c-2.129-4.4119-6.5373-9.1474-8.5908-13.5589,17.5679,1.9018,39.1663,12.0165,55.4415,20.078a6.3864,6.3864,0,0,0,1.1745.79c1.1229,19.64,8.7035,33.3661,29.75,37.201,7.9272-.8807,17.5908-2.244,24.9368-7.9507,4.72,1.8645,21.4785,10.8768,24.1913,15.1934-7.74-2.8793-13.2927-7.169-22.5-8.1951-5.9395,3.803-17.7984,7.4108-28.8311,7.4108-26.9215-3.575-32.7518-17.6036-41.27-39.1256-7.393-1.9683-17.8918-3-29.0126-2.7-26.47.7134-57.0595,11.173-77.4874,32.5945,13.41,5.6011,25.9673,10.1667,37.0523,18.48,3.5158-4.141,23.1822-22.6725,52.8811-22.16-21.8244,7.3117-30.1617,13.9668-41.5393,32.8691,4.97,1.9082,12.208,18.6582,17.956,32.2316,9.2478-38.3484,33.459-48.72,52.7009-56.5007,8.6548,4.9793,17.6521,11.8465,29.1069,11.1775,10.53-.6149,19.2605-2.9532,26.67-6.6927,13.8568,6.869,29.0948,13.0342,34.6193,29.013,7.3174.4176,13.9568,1.6979,18.2657,2.3108.0141-.01,5.2935-5.3063,5.1421-6.1429-15.0944-1.426-23.88-7.49-23.4537-15.6982.2968-5.7022,5.73-9.2995,12.8348-8.5726,8.3258.8519,21.0457,7.4267,33.4268,19.7315a16.1844,16.1844,0,0,0,1.9773.1521c1.37-3.4228,3.5272-7.4242,2.9186-11.6828C886.8877,261.9967,893.3946,251.3134,892.9239,248.3815Zm-121.2306-67.069a31.76,31.76,0,0,1,8.2188.2011c-.824-2.0526-2.6277-3.46-4.8781-5.5579,8.3526,2.6113,11.7606,5.6919,17.3743,12.99C784.79,184.9949,780.9813,184.2585,771.6933,181.3125Zm50.9937,34.5584a12.988,12.988,0,0,1-4.7336,2.9009c-1.7556-2.6526-12.9028-11.7359-21.302-19.24,5.8889-.0981,54.9145,27.4363,66.4261,39.32C849.4663,232.2885,829.9368,219.6279,822.687,215.8709Zm52.81,32.4162c3.1728-1.1534,6.6947-.578,10.1368.0293-1.3927,1.8168-3.4394,2.4337-3.6687,4.0787-.2843,2.0469,4.0416,8.2976,6.0285,10.2905C883.44,259.45,876.0422,255.8643,875.4968,248.2871Z" transform="translate(-82.6921 -108)"/><path class="b" d="M663.9975,142.6338c7.7732-.2013,21.13,5.74,29.6914,21.2631,18.7009-1.701,36.6767,2.19,50.6633,2.5721-14.6555-27.5833-47.46-48.8553-73.449-48.3613-40.2.7624-47.6495,21.5672-67.6314,19.6926-8.1023-.76-15.2828-4.7231-21.41-9.8259,4.9925,14.033,8.5858,26.8032,24.5573,27.2618C617.5393,155.5553,643.9936,143.1507,663.9975,142.6338Z" transform="translate(-82.6921 -108)"/><path class="b" d="M592.5677,189.1779c27.3717-10.4417,53.754-20.6686,83.1421-23.4063-1.6951-7.3282-14.9387-11.8046-25.0875-11.9908-16.6536-.3065-45.5587,12.8545-64.67,11.5756-19.1434-1.2814-28.2288-7.7939-31.6962-37.8391-2.6582,8.5744-3.8027,17.5788-2.9529,24.6979C553.9627,174.4923,572.816,188.511,592.5677,189.1779Z" transform="translate(-82.6921 -108)"/><path class="b" d="M556.3863,185.9059c-15.2663,1.5189-16.4827,12.3083-38.875,3.2773,5.6618,14.8158,13.7326,19.8681,27.4933,19.7683,17.691-.1291,27.836-6.8118,36.1376-12.6569C575.1634,193.4588,565.0632,185.0429,556.3863,185.9059Z" transform="translate(-82.6921 -108)"/><path class="b" d="M590.9173,503.9164l12.5179,29.6472H578.3979l12.5194-29.6472Zm0-20.1911-3.9968,9.4458L557.5,562.86h9.392l8.6388-20.5072h30.7706l8.636,20.5072H624.33l-29.4214-69.6885-3.9915-9.4458Z" transform="translate(-82.6921 -108)"/><path class="b" d="M714.4734,492.7009a32.3065,32.3065,0,1,1-32.3092,32.3053,32.2391,32.2391,0,0,1,32.3092-32.3053Zm0-9.2512A41.5213,41.5213,0,1,0,756.03,525.0062,41.58,41.58,0,0,0,714.4734,483.45Z" transform="translate(-82.6921 -108)"/><path class="b" d="M759.7035,492.7009a32.3065,32.3065,0,1,1-32.3077,32.3053,32.24,32.24,0,0,1,32.3077-32.3053Zm0-9.2512A41.5213,41.5213,0,1,0,801.26,525.0062,41.5784,41.5784,0,0,0,759.7035,483.45Z" transform="translate(-82.6921 -108)"/><polygon class="b" points="724.65 375.521 724.65 386.992 724.65 457.789 733.439 457.789 733.439 398.462 787.037 454.736 794.96 463.042 794.96 451.562 794.96 378.69 786.171 378.69 786.171 440.094 732.568 383.821 724.65 375.521 724.65 375.521"/><path class="b" d="M920.9386,486.69l-.5129,2.04-7.03,26.1556-1.3081,4.7661,4.7076-1.4742a22.0663,22.0663,0,1,1-11.7977,33.0734.788.788,0,0,0-.06-.1094h-5.8145a26.8975,26.8975,0,0,0,1.6879,3.041,27.3141,27.3141,0,0,0,46.5615-28.5278c-5.795-10.07-16.82-14.5384-27.4655-13.0489l5.3555-20.0564h25.63V486.69H920.9386Z" transform="translate(-82.6921 -108)"/><path class="b" d="M637.4248,495.4787h8.172c7.4776,0,14.1256,6.1178,13.9025,13.5921a13.1155,13.1155,0,0,1-13.1779,12.7743h-8.8966V495.4787ZM628.636,483.76V562.86h8.7888V530.6339h.9887L662.7993,562.86h12.6829l-25.4751-33.7321a22.8672,22.8672,0,0,0,19.4407-26.4861c-1.8868-11.11-12.1137-18.8811-23.3824-18.8811H628.636Z" transform="translate(-82.6921 -108)"/><path class="b" d="M537.1538,481.3981l-5.6772,13.086-13.1395,30.2906h9.6865l5.96-13.698L544.227,562.86h9.02l-13.3632-67.4865-2.73-13.975Zm-56.7843,0-2.7309,13.975L464.2766,562.86h9.0225l10.2447-51.7829,5.9561,13.698h9.691L486.05,494.4841l-5.68-13.086Z" transform="translate(-82.6921 -108)"/><polygon class="b" points="410.262 425.564 421.858 452.331 426.069 462.081 430.283 452.331 441.878 425.564 431.841 425.564 426.069 438.893 420.303 425.564 410.262 425.564 410.262 425.564"/></svg>