<svg xmlns="http://www.w3.org/2000/svg" width="1000" height="1000" viewBox="0 0 1000 1000"><title>homePage</title><path d="M307.0078,152.999v177.5h-28.25v-78.25H189.2583v78.25h-28v-177.5h28v74.25h89.4995v-74.25Z"/><path d="M343.5078,178.249v-30.25h27.5v30.25Zm0,152.25V199.749h27.5v130.75Z"/><path d="M405.7549,354.749l6-25.75h-9v-30.5h24.75v30.5l-8.75,25.75Z"/><path d="M524.501,330.499v-177.5h28v177.5Z"/><path d="M590.248,207.749l5.25-29.5h-8.75v-31h27v31.25l-8.25,29.25Z"/><path d="M843.4951,330.499h-27.5v-73.25q0-18.246-6-26.75-6-8.496-17.5-8.5-11.7538,0-21.375,8.625a48.5417,48.5417,0,0,0-13.875,22.375v77.5h-27.5v-73.25q0-18.498-6-26.875-6-8.373-17.25-8.375-11.7538,0-21.5,8.5a47.2771,47.2771,0,0,0-14,22.25v77.75h-27.5V199.749h25v26.25a55.2522,55.2522,0,0,1,20.375-21.125q12.6212-7.371,28.875-7.375,16.248,0,25.625,8.5a36.4229,36.4229,0,0,1,11.625,21.25q8.25-14.496,20.75-22.125a53.63,53.63,0,0,1,28.5-7.625q11.4962,0,19.125,4.375a33.85,33.85,0,0,1,12.125,11.625,48.0025,48.0025,0,0,1,6.25,16.875,114.0868,114.0868,0,0,1,1.75,20.375Z"/><path d="M149.832,584.249q4.9278,3.48,14.6451,6.8155a68.1261,68.1261,0,0,0,22.185,3.3349q13.3352,0,21.315-4.7851a30.5052,30.5052,0,0,0,12.18-14.21q4.2-9.42,5.51-23.49,1.3051-14.0625,1.3052-32.625v-104.69h32.77v104.69a360.4888,360.4888,0,0,1-2.32,42.7754q-2.3234,19.289-9.8594,32.915a51.831,51.831,0,0,1-22.0405,21.17q-14.5043,7.5366-38.86,7.54-26.1,0-44.66-12.7608Z"/><path d="M365.5908,623.3994q-17.9838,0-32.3349-6.3808a74.2369,74.2369,0,0,1-40.1651-42.1944,84.5115,84.5115,0,0,1,0-60.03,74.1755,74.1755,0,0,1,15.8047-25.0849,77.2088,77.2088,0,0,1,24.65-17.11,83.6674,83.6674,0,0,1,64.09,0,77.2607,77.2607,0,0,1,24.65,17.11,74.31,74.31,0,0,1,15.8047,25.0849,84.51,84.51,0,0,1,0,60.03,74.2759,74.2759,0,0,1-15.8047,25.085,77.12,77.12,0,0,1-24.65,17.1094A78.1094,78.1094,0,0,1,365.5908,623.3994Zm-45.24-78.3008a57.3585,57.3585,0,0,0,3.4805,20.3008A50.3855,50.3855,0,0,0,333.4,581.4941a44.73,44.73,0,0,0,14.3555,10.73,42.58,42.58,0,0,0,35.67,0,43.8129,43.8129,0,0,0,14.3555-10.875,52.2163,52.2163,0,0,0,9.5693-16.2392,60.5175,60.5175,0,0,0,0-40.4551,51.9335,51.9335,0,0,0-9.5693-16.3857,43.8336,43.8336,0,0,0-14.3555-10.8746,41.133,41.133,0,0,0-17.835-3.915,39.2876,39.2876,0,0,0-17.5449,4.06A45.6832,45.6832,0,0,0,333.69,508.5586a54.1357,54.1357,0,0,0-9.7148,16.3857A55.6014,55.6014,0,0,0,320.3506,545.0986Z"/><path d="M608.0283,620.499h-31.9v-84.97q0-20.88-7.3945-30.8857-7.396-10.0042-21.3154-10.0044a36.3511,36.3511,0,0,0-13.34,2.61,47.8445,47.8445,0,0,0-12.6152,7.3946,56.16,56.16,0,0,0-10.585,11.3105,48.1467,48.1467,0,0,0-6.96,14.3545v90.19h-31.9v-211.7h31.9v90.48a62.9315,62.9315,0,0,1,23.6347-24.36,63.6618,63.6618,0,0,1,32.625-8.7q14.2061,0,23.3448,5.0747a41.0124,41.0124,0,0,1,14.6455,13.4849,54.3371,54.3371,0,0,1,7.6845,19.5757,123.4749,123.4749,0,0,1,2.1758,23.6348Z"/><path d="M781.1543,620.499h-31.9v-84.97q0-21.4585-6.8154-31.1748-6.816-9.7134-20.1543-9.7153a39.3948,39.3948,0,0,0-13.92,2.61,48.77,48.77,0,0,0-13.0508,7.3946,57.6489,57.6489,0,0,0-10.875,11.3105,51.84,51.84,0,0,0-7.3946,14.3545v90.19h-31.9v-151.67h29v30.45a61.6476,61.6476,0,0,1,25.23-24.2148,76.23,76.23,0,0,1,36.54-8.8448q13.6274,0,22.33,4.93a36.941,36.941,0,0,1,13.7745,13.4849,59.1112,59.1112,0,0,1,7.1054,19.7207,132.3076,132.3076,0,0,1,2.03,23.6348Z"/><path d="M816.82,620.499v-37.12h26.39v37.12Z"/><path d="M171.7769,770.499v-42.6h6.72v42.6Z"/><path d="M187.5562,741.0391l1.26-7.08h-2.1v-7.44h6.48v7.5l-1.98,7.02Z"/><path d="M248.3359,770.499h-6.6005v-17.58q0-4.3784-1.44-6.42a4.819,4.819,0,0,0-4.2-2.04,7.5082,7.5082,0,0,0-5.13,2.07,11.6475,11.6475,0,0,0-3.33,5.37v18.6h-6.6v-17.58q0-4.44-1.44-6.45a4.7829,4.7829,0,0,0-4.14-2.01,7.68,7.68,0,0,0-5.16,2.04,11.3469,11.3469,0,0,0-3.36,5.34v18.66h-6.6v-31.38h6v6.3a13.2638,13.2638,0,0,1,4.89-5.07,13.49,13.49,0,0,1,6.93-1.7695,8.3933,8.3933,0,0,1,8.94,7.14,14.3662,14.3662,0,0,1,4.98-5.31,12.87,12.87,0,0,1,6.84-1.83,9.1283,9.1283,0,0,1,4.59,1.05,8.1417,8.1417,0,0,1,2.91,2.79,11.5668,11.5668,0,0,1,1.5,4.05,27.3976,27.3976,0,0,1,.42,4.8906Z"/><path d="M279.1143,771.0986a11.6756,11.6756,0,0,1-4.23-.75,10.1965,10.1965,0,0,1-3.36-2.0693,9.6425,9.6425,0,0,1-2.22-3.12,9.3928,9.3928,0,0,1-.8106-3.9,8.4112,8.4112,0,0,1,.96-4.0195,9.3836,9.3836,0,0,1,2.7305-3.12,13.2409,13.2409,0,0,1,4.2-2.04,18.834,18.834,0,0,1,5.37-.72,24.6443,24.6443,0,0,1,4.38.39,22.1912,22.1912,0,0,1,3.8994,1.05v-2.16a7.2794,7.2794,0,0,0-1.9795-5.43,7.7894,7.7894,0,0,0-5.7-1.95,13.7438,13.7438,0,0,0-4.95.9307,25.0263,25.0263,0,0,0-5.01,2.67l-2.04-4.2a22.2508,22.2508,0,0,1,12.6-4.08q6.48,0,10.08,3.3t3.6006,9.4805v11.34q0,2.1006,1.7392,2.16v5.64q-.9594.18-1.6494.24c-.4609.039-.91.06-1.3506.06a4.2389,4.2389,0,0,1-2.97-.96,4.0979,4.0979,0,0,1-1.29-2.46l-.18-1.98a13.9958,13.9958,0,0,1-5.19,4.23A15.2431,15.2431,0,0,1,279.1143,771.0986Zm1.8-4.8593a11.8638,11.8638,0,0,0,4.53-.87,7.8079,7.8079,0,0,0,3.33-2.43,3.0436,3.0436,0,0,0,1.26-2.28v-4.1406a20.0171,20.0171,0,0,0-3.5694-1.02,19.6919,19.6919,0,0,0-3.69-.36,10.095,10.095,0,0,0-5.79,1.53,4.6894,4.6894,0,0,0-2.25,4.05,5.1081,5.1081,0,0,0,1.74,3.9306A6.3269,6.3269,0,0,0,280.9141,766.2393Z"/><path d="M332.2139,771.0986a13.453,13.453,0,0,1-5.88-1.29,14.6779,14.6779,0,0,1-4.6807-3.51,16.2762,16.2762,0,0,1-3.09-5.1894,18.9271,18.9271,0,0,1-.06-12.6006,16.436,16.436,0,0,1,2.94-5.13,14.214,14.214,0,0,1,4.44-3.51,12.9459,12.9459,0,0,1,12.2695.54,13.3477,13.3477,0,0,1,4.5,4.6494V726.6992h6.6006v36a2.5971,2.5971,0,0,0,.39,1.62,1.8851,1.8851,0,0,0,1.41.54v5.64q-1.0211.18-1.65.24c-.42.039-.7705.06-1.05.06a4.9831,4.9831,0,0,1-3.24-1.0195,3.6063,3.6063,0,0,1-1.38-2.6406l-.12-2.34a12.51,12.51,0,0,1-4.7393,4.62A13.4084,13.4084,0,0,1,332.2139,771.0986Zm1.62-5.64a9.0508,9.0508,0,0,0,2.88-.4795,10.2052,10.2052,0,0,0,2.64-1.32,9.2581,9.2581,0,0,0,2.07-1.9805,7.0966,7.0966,0,0,0,1.2295-2.46v-8.22a9.8406,9.8406,0,0,0-1.5293-2.76,10.9425,10.9425,0,0,0-2.25-2.16,10.33,10.33,0,0,0-2.67-1.38,8.7885,8.7885,0,0,0-2.8506-.48,7.4488,7.4488,0,0,0-3.63.9,9.3483,9.3483,0,0,0-2.85,2.3995,11.8275,11.8275,0,0,0-1.8906,3.4209,11.6252,11.6252,0,0,0-.69,3.96,11.0979,11.0979,0,0,0,.75,4.08,10.6332,10.6332,0,0,0,2.0694,3.3594,10.1572,10.1572,0,0,0,3.03,2.28A8.2473,8.2473,0,0,0,333.834,765.459Z"/><path d="M371.873,771.0986a16.6841,16.6841,0,0,1-6.66-1.29,15.482,15.482,0,0,1-5.13-3.51,15.8155,15.8155,0,0,1-3.3-5.16,16.7052,16.7052,0,0,1-1.17-6.2393,16.9489,16.9489,0,0,1,1.17-6.27,16.1,16.1,0,0,1,3.3-5.22,15.2872,15.2872,0,0,1,5.13-3.54,16.8617,16.8617,0,0,1,6.7207-1.29,16.1549,16.1549,0,0,1,6.63,1.32,15.8727,15.8727,0,0,1,5.07,3.51,15.0589,15.0589,0,0,1,3.21,5.1,16.9637,16.9637,0,0,1,1.1093,6.09q0,.7207-.06,1.3506c-.04.42-.0811.77-.12,1.05h-25.14a10.7239,10.7239,0,0,0,.9892,3.78,9.9192,9.9192,0,0,0,2.1006,2.91,9.2218,9.2218,0,0,0,6.39,2.55,10.5159,10.5159,0,0,0,2.61-.33,9.2171,9.2171,0,0,0,2.37-.96,8.4249,8.4249,0,0,0,1.92-1.53,7.1494,7.1494,0,0,0,1.3193-1.9794l5.6406,1.6191a13.0762,13.0762,0,0,1-5.37,5.79A16.64,16.64,0,0,1,371.873,771.0986Zm9.54-18.6591a10.5742,10.5742,0,0,0-.9893-3.66,9.4323,9.4323,0,0,0-2.07-2.8506,9.2721,9.2721,0,0,0-2.94-1.83,9.6092,9.6092,0,0,0-3.54-.6591,9.382,9.382,0,0,0-6.42,2.4892,9.0212,9.0212,0,0,0-2.04,2.8506,10.9727,10.9727,0,0,0-.96,3.66Z"/><path d="M404.7529,771.0986a24.0429,24.0429,0,0,1-7.53-1.23,19.0718,19.0718,0,0,1-6.45-3.51l2.64-4.2a24.3239,24.3239,0,0,0,5.58,3.09,15.739,15.739,0,0,0,5.6406,1.05,8.29,8.29,0,0,0,4.6494-1.14,3.6664,3.6664,0,0,0,1.71-3.24,2.9991,2.9991,0,0,0-1.92-2.88,38.55,38.55,0,0,0-6-1.9805q-2.94-.7779-5.04-1.5a12.9287,12.9287,0,0,1-3.42-1.68,5.89,5.89,0,0,1-1.92-2.22,7.0712,7.0712,0,0,1-.6-3.0606,9.4014,9.4014,0,0,1,.93-4.26,9.1455,9.1455,0,0,1,2.58-3.1494,11.551,11.551,0,0,1,3.87-1.95,16.7889,16.7889,0,0,1,4.8-.66,19.7063,19.7063,0,0,1,6.6005,1.08,17.1979,17.1979,0,0,1,5.46,3.12l-2.82,3.96a14.7164,14.7164,0,0,0-9.3-3.4805,7.9546,7.9546,0,0,0-4.2305,1.05,3.6215,3.6215,0,0,0-1.71,3.33,3.34,3.34,0,0,0,.36,1.62,3.0586,3.0586,0,0,0,1.17,1.1406,9.5566,9.5566,0,0,0,2.1.8692q1.2906.3911,3.21.87,3.18.7808,5.49,1.5605a15.0875,15.0875,0,0,1,3.81,1.83,6.7983,6.7983,0,0,1,2.2207,2.46,7.3826,7.3826,0,0,1,.72,3.39,8.4954,8.4954,0,0,1-3.39,7.11Q410.5717,771.1,404.7529,771.0986Z"/><path d="M423.1113,733.959v-7.26h6.6v7.26Zm0,36.54v-31.38h6.6v31.38Z"/><path d="M450.0508,770.7988a13.0594,13.0594,0,0,1-5.82-1.29,13.8768,13.8768,0,0,1-4.5293-3.51,16.4811,16.4811,0,0,1-2.94-5.1,17.5457,17.5457,0,0,1-1.05-6.0605,18.3918,18.3918,0,0,1,1.08-6.33,16.0684,16.0684,0,0,1,3-5.16,14.3286,14.3286,0,0,1,4.59-3.48,13.4134,13.4134,0,0,1,5.91-1.29,12.15,12.15,0,0,1,6.63,1.8,15.2525,15.2525,0,0,1,4.71,4.68v-5.9395h5.82v30.48a13.9,13.9,0,0,1-1.2608,6.0606,12.7933,12.7933,0,0,1-3.51,4.47,15.8327,15.8327,0,0,1-5.31,2.79,21.9493,21.9493,0,0,1-6.6006.96,18.9155,18.9155,0,0,1-8.67-1.7695,16.42,16.42,0,0,1-5.79-4.95l3.7208-3.4805a11.5912,11.5912,0,0,0,4.6494,3.84,14.3179,14.3179,0,0,0,6.09,1.32,13.5994,13.5994,0,0,0,3.87-.54,8.9644,8.9644,0,0,0,3.21-1.68,8.1274,8.1274,0,0,0,2.19-2.88,9.7443,9.7443,0,0,0,.81-4.1407v-4.8a11.4814,11.4814,0,0,1-4.62,4.44A13.0035,13.0035,0,0,1,450.0508,770.7988Zm2.16-5.34a8.2507,8.2507,0,0,0,2.88-.51,10.1215,10.1215,0,0,0,2.55-1.38,9.9446,9.9446,0,0,0,2.0108-1.98,7.1638,7.1638,0,0,0,1.1992-2.37v-8.22a11.09,11.09,0,0,0-3.75-4.86,10.692,10.692,0,0,0-2.6094-1.4092,8.1651,8.1651,0,0,0-6.63.42,9.3039,9.3039,0,0,0-2.91,2.46,11.6813,11.6813,0,0,0-1.86,3.4492,12.0956,12.0956,0,0,0-.66,3.96,10.8839,10.8839,0,0,0,.75,4.0507,10.3522,10.3522,0,0,0,2.07,3.3,10.12,10.12,0,0,0,3.09,2.25A8.9,8.9,0,0,0,452.2109,765.459Z"/><path d="M503.5107,770.499h-6.6v-17.58q0-4.44-1.41-6.45a4.7653,4.7653,0,0,0-4.17-2.01,8.145,8.145,0,0,0-2.88.54,10.09,10.09,0,0,0-2.7,1.53,11.9193,11.9193,0,0,0-2.25,2.34,10.7188,10.7188,0,0,0-1.53,2.97v18.66h-6.6v-31.38h6v6.3a12.7622,12.7622,0,0,1,5.22-5.01,15.7754,15.7754,0,0,1,7.5606-1.83,9.3016,9.3016,0,0,1,4.62,1.0195,7.6528,7.6528,0,0,1,2.85,2.79,12.2417,12.2417,0,0,1,1.47,4.08,27.3976,27.3976,0,0,1,.42,4.8906Z"/><path d="M525.41,771.0986a16.6843,16.6843,0,0,1-6.66-1.29,15.482,15.482,0,0,1-5.13-3.51,15.8155,15.8155,0,0,1-3.3-5.16,16.7052,16.7052,0,0,1-1.17-6.2393,16.9489,16.9489,0,0,1,1.17-6.27,16.1,16.1,0,0,1,3.3-5.22,15.2872,15.2872,0,0,1,5.13-3.54,16.8617,16.8617,0,0,1,6.7207-1.29,16.1546,16.1546,0,0,1,6.63,1.32,15.8727,15.8727,0,0,1,5.07,3.51,15.0589,15.0589,0,0,1,3.21,5.1,16.9637,16.9637,0,0,1,1.1093,6.09q0,.7207-.0595,1.3506c-.04.42-.0811.77-.12,1.05h-25.14a10.7218,10.7218,0,0,0,.9893,3.78,9.9171,9.9171,0,0,0,2.1005,2.91,9.2218,9.2218,0,0,0,6.39,2.55,10.5159,10.5159,0,0,0,2.61-.33,9.2156,9.2156,0,0,0,2.37-.96,8.4249,8.4249,0,0,0,1.92-1.53A7.1472,7.1472,0,0,0,533.87,761.44l5.6406,1.6191a13.0762,13.0762,0,0,1-5.37,5.79A16.64,16.64,0,0,1,525.41,771.0986Zm9.54-18.6591a10.5742,10.5742,0,0,0-.9893-3.66,9.4323,9.4323,0,0,0-2.07-2.8506,9.2721,9.2721,0,0,0-2.94-1.83,9.6091,9.6091,0,0,0-3.54-.6591,9.382,9.382,0,0,0-6.42,2.4892,9.0212,9.0212,0,0,0-2.04,2.8506,10.9751,10.9751,0,0,0-.96,3.66Z"/><path d="M564.5293,744.8193a14.7659,14.7659,0,0,0-6.81,1.77,9.33,9.33,0,0,0-4.23,4.71v19.2h-6.6v-31.38h6.12v7.02a14.3613,14.3613,0,0,1,4.2295-5.1895,10.2616,10.2616,0,0,1,5.61-2.13h.99a3.6163,3.6163,0,0,1,.69.06Z"/><path d="M566.9893,776.3193l1.44-6.1806h-2.16v-7.3194h5.9395v7.3194l-2.1,6.1806Z"/><path d="M602.9883,771.0986a11.6756,11.6756,0,0,1-4.23-.75,10.1965,10.1965,0,0,1-3.36-2.0693,9.644,9.644,0,0,1-2.22-3.12,9.3943,9.3943,0,0,1-.8105-3.9,8.4112,8.4112,0,0,1,.96-4.0195,9.3836,9.3836,0,0,1,2.7305-3.12,13.242,13.242,0,0,1,4.2-2.04,18.8345,18.8345,0,0,1,5.37-.72,24.6435,24.6435,0,0,1,4.38.39,22.1912,22.1912,0,0,1,3.8994,1.05v-2.16a7.2794,7.2794,0,0,0-1.9795-5.43,7.7894,7.7894,0,0,0-5.7-1.95,13.7438,13.7438,0,0,0-4.95.9307,25.023,25.023,0,0,0-5.01,2.67l-2.04-4.2a22.251,22.251,0,0,1,12.6-4.08q6.48,0,10.08,3.3t3.6006,9.4805v11.34q0,2.1006,1.7392,2.16v5.64q-.9594.18-1.6494.24c-.4609.039-.91.06-1.3506.06a4.2389,4.2389,0,0,1-2.97-.96,4.0985,4.0985,0,0,1-1.29-2.46l-.18-1.98a13.9963,13.9963,0,0,1-5.19,4.23A15.2438,15.2438,0,0,1,602.9883,771.0986Zm1.8-4.8593a11.8647,11.8647,0,0,0,4.53-.87,7.8075,7.8075,0,0,0,3.33-2.43,3.0436,3.0436,0,0,0,1.26-2.28v-4.1406a20.0184,20.0184,0,0,0-3.5693-1.02,19.6937,19.6937,0,0,0-3.69-.36,10.095,10.095,0,0,0-5.79,1.53,4.6894,4.6894,0,0,0-2.25,4.05,5.1081,5.1081,0,0,0,1.74,3.9306A6.3269,6.3269,0,0,0,604.7881,766.2393Z"/><path d="M656.6279,770.499h-6.6v-17.58q0-4.44-1.41-6.45a4.7653,4.7653,0,0,0-4.17-2.01,8.1448,8.1448,0,0,0-2.88.54,10.09,10.09,0,0,0-2.7,1.53,11.9193,11.9193,0,0,0-2.25,2.34,10.7161,10.7161,0,0,0-1.53,2.97v18.66h-6.6v-31.38h6v6.3a12.7622,12.7622,0,0,1,5.22-5.01,15.7754,15.7754,0,0,1,7.5606-1.83,9.3019,9.3019,0,0,1,4.62,1.0195,7.6528,7.6528,0,0,1,2.85,2.79,12.2417,12.2417,0,0,1,1.47,4.08,27.3976,27.3976,0,0,1,.42,4.8906Z"/><path d="M687.4668,771.0986a11.6756,11.6756,0,0,1-4.23-.75,10.195,10.195,0,0,1-3.36-2.0693,9.6428,9.6428,0,0,1-2.22-3.12,9.3943,9.3943,0,0,1-.81-3.9,8.4112,8.4112,0,0,1,.96-4.0195,9.3836,9.3836,0,0,1,2.7305-3.12,13.242,13.242,0,0,1,4.2-2.04,18.8345,18.8345,0,0,1,5.37-.72,24.6435,24.6435,0,0,1,4.38.39,22.1864,22.1864,0,0,1,3.8994,1.05v-2.16a7.279,7.279,0,0,0-1.98-5.43,7.7894,7.7894,0,0,0-5.7-1.95,13.7442,13.7442,0,0,0-4.95.9307,25.023,25.023,0,0,0-5.01,2.67l-2.04-4.2a22.251,22.251,0,0,1,12.6-4.08q6.4806,0,10.08,3.3t3.6006,9.4805v11.34q0,2.1006,1.7393,2.16v5.64q-.96.18-1.6495.24c-.4609.039-.91.06-1.3505.06a4.2391,4.2391,0,0,1-2.97-.96,4.0985,4.0985,0,0,1-1.29-2.46l-.18-1.98a13.9955,13.9955,0,0,1-5.19,4.23A15.2438,15.2438,0,0,1,687.4668,771.0986Zm1.8-4.8593a11.8643,11.8643,0,0,0,4.53-.87,7.8085,7.8085,0,0,0,3.33-2.43,3.0438,3.0438,0,0,0,1.26-2.28v-4.1406a20.0184,20.0184,0,0,0-3.5693-1.02,19.6935,19.6935,0,0,0-3.69-.36,10.0951,10.0951,0,0,0-5.79,1.53,4.6894,4.6894,0,0,0-2.25,4.05,5.1081,5.1081,0,0,0,1.74,3.9306A6.3269,6.3269,0,0,0,689.2666,766.2393Z"/><path d="M730.6064,744.8193a14.7658,14.7658,0,0,0-6.8095,1.77,9.33,9.33,0,0,0-4.2305,4.71v19.2h-6.6v-31.38h6.12v7.02a14.3623,14.3623,0,0,1,4.23-5.1895,10.2619,10.2619,0,0,1,5.61-2.13h.99a3.6144,3.6144,0,0,1,.6894.06Z"/><path d="M752.8662,768.8789a33.0711,33.0711,0,0,1-3.48,1.3506,14.7442,14.7442,0,0,1-4.74.75,10.0333,10.0333,0,0,1-2.94-.4209,7.17,7.17,0,0,1-2.43-1.26,5.7135,5.7135,0,0,1-1.65-2.1894,8.0184,8.0184,0,0,1-.6-3.2705v-19.62h-4.14v-5.1h4.14v-10.32h6.6v10.32h6.84v5.1h-6.84v17.52a3.2551,3.2551,0,0,0,1.0508,2.43,3.5512,3.5512,0,0,0,2.31.75,7.344,7.344,0,0,0,2.64-.4794q1.26-.4806,1.86-.78Z"/><path d="M757.4258,733.959v-7.26h6.6v7.26Zm0,36.54v-31.38h6.6v31.38Z"/><path d="M783.3457,771.0986a24.044,24.044,0,0,1-7.53-1.23,19.0718,19.0718,0,0,1-6.45-3.51l2.64-4.2a24.3239,24.3239,0,0,0,5.58,3.09,15.739,15.739,0,0,0,5.6406,1.05,8.29,8.29,0,0,0,4.6494-1.14,3.6667,3.6667,0,0,0,1.71-3.24,2.9991,2.9991,0,0,0-1.92-2.88,38.5427,38.5427,0,0,0-6-1.9805q-2.94-.7779-5.04-1.5a12.9287,12.9287,0,0,1-3.42-1.68,5.89,5.89,0,0,1-1.92-2.22,7.0712,7.0712,0,0,1-.6-3.0606,9.4027,9.4027,0,0,1,.93-4.26,9.1458,9.1458,0,0,1,2.58-3.1494,11.5515,11.5515,0,0,1,3.87-1.95,16.79,16.79,0,0,1,4.8-.66,19.7064,19.7064,0,0,1,6.6006,1.08,17.1979,17.1979,0,0,1,5.46,3.12l-2.82,3.96a14.7164,14.7164,0,0,0-9.3-3.4805,7.9546,7.9546,0,0,0-4.2305,1.05,3.6214,3.6214,0,0,0-1.71,3.33,3.34,3.34,0,0,0,.36,1.62,3.0586,3.0586,0,0,0,1.17,1.1406,9.5545,9.5545,0,0,0,2.1.8692q1.2906.3911,3.21.87,3.18.7808,5.49,1.5605a15.0875,15.0875,0,0,1,3.81,1.83,6.7983,6.7983,0,0,1,2.2207,2.46,7.3826,7.3826,0,0,1,.72,3.39,8.4954,8.4954,0,0,1-3.39,7.11Q789.1645,771.1,783.3457,771.0986Z"/><path d="M819.1641,768.8789a33.08,33.08,0,0,1-3.4795,1.3506,14.7453,14.7453,0,0,1-4.74.75,10.0333,10.0333,0,0,1-2.94-.4209,7.1707,7.1707,0,0,1-2.43-1.26,5.7135,5.7135,0,0,1-1.65-2.1894,8.0184,8.0184,0,0,1-.6-3.2705v-19.62h-4.14v-5.1h4.14v-10.32h6.6v10.32h6.84v5.1h-6.84v17.52a3.2551,3.2551,0,0,0,1.0508,2.43,3.5517,3.5517,0,0,0,2.31.75,7.3435,7.3435,0,0,0,2.64-.4794q1.26-.4806,1.86-.78Z"/><path d="M824.1436,776.3193l1.44-6.1806h-2.16v-7.3194h5.9395v7.3194l-2.1,6.1806Z"/><path d="M206.8735,831.0986a11.68,11.68,0,0,1-4.23-.75,10.1982,10.1982,0,0,1-3.36-2.0693,9.635,9.635,0,0,1-2.22-3.12,9.3925,9.3925,0,0,1-.81-3.9,8.3986,8.3986,0,0,1,.96-4.0195,9.3761,9.3761,0,0,1,2.73-3.12,13.2387,13.2387,0,0,1,4.2-2.04,18.8364,18.8364,0,0,1,5.37-.72,24.6319,24.6319,0,0,1,4.38.39,22.2,22.2,0,0,1,3.9,1.05v-2.16a7.2776,7.2776,0,0,0-1.98-5.43,7.7894,7.7894,0,0,0-5.7-1.95,13.7419,13.7419,0,0,0-4.95.9307,25.0209,25.0209,0,0,0-5.01,2.67l-2.04-4.2a22.2509,22.2509,0,0,1,12.6-4.08q6.48,0,10.08,3.3t3.6,9.4805v11.34q0,2.1006,1.74,2.16v5.64q-.96.18-1.65.24-.6907.0585-1.35.06a4.24,4.24,0,0,1-2.97-.96,4.1012,4.1012,0,0,1-1.29-2.46l-.18-1.98a13.9971,13.9971,0,0,1-5.19,4.23A15.2485,15.2485,0,0,1,206.8735,831.0986Zm1.8-4.8593a11.8655,11.8655,0,0,0,4.53-.87,7.8115,7.8115,0,0,0,3.33-2.43,3.0445,3.0445,0,0,0,1.26-2.28v-4.1406a20.0269,20.0269,0,0,0-3.57-1.02,19.6787,19.6787,0,0,0-3.69-.36,10.0947,10.0947,0,0,0-5.79,1.53,4.6894,4.6894,0,0,0-2.25,4.05,5.1094,5.1094,0,0,0,1.74,3.9306A6.3279,6.3279,0,0,0,208.6738,826.2393Z"/><path d="M260.5137,830.499h-6.6v-17.58q0-4.44-1.41-6.45a4.7663,4.7663,0,0,0-4.17-2.01,8.1507,8.1507,0,0,0-2.8809.54,10.1018,10.1018,0,0,0-2.6992,1.53,11.913,11.913,0,0,0-2.25,2.34,10.72,10.72,0,0,0-1.53,2.97v18.66h-6.6v-31.38h6v6.3a12.7576,12.7576,0,0,1,5.22-5.01,15.772,15.772,0,0,1,7.5605-1.83,9.2975,9.2975,0,0,1,4.6191,1.0195,7.6448,7.6448,0,0,1,2.85,2.79,12.2625,12.2625,0,0,1,1.4708,4.08,27.4068,27.4068,0,0,1,.42,4.8906Z"/><path d="M280.9727,831.0986a13.453,13.453,0,0,1-5.88-1.29,14.6779,14.6779,0,0,1-4.6807-3.51,16.2762,16.2762,0,0,1-3.09-5.1894,18.9271,18.9271,0,0,1-.06-12.6006,16.4377,16.4377,0,0,1,2.9394-5.13,14.2155,14.2155,0,0,1,4.4405-3.51,12.9459,12.9459,0,0,1,12.2695.54,13.3477,13.3477,0,0,1,4.5,4.6494V786.6992h6.6006v36a2.5978,2.5978,0,0,0,.39,1.62,1.8855,1.8855,0,0,0,1.41.54v5.64q-1.0211.18-1.65.24c-.42.039-.7705.06-1.05.06a4.9831,4.9831,0,0,1-3.24-1.0195,3.6063,3.6063,0,0,1-1.38-2.6406l-.12-2.34a12.51,12.51,0,0,1-4.7393,4.62A13.4084,13.4084,0,0,1,280.9727,831.0986Zm1.62-5.64a9.0508,9.0508,0,0,0,2.88-.4795,10.2052,10.2052,0,0,0,2.64-1.32,9.26,9.26,0,0,0,2.07-1.9805,7.0966,7.0966,0,0,0,1.23-2.46v-8.22a9.8406,9.8406,0,0,0-1.5293-2.76,10.9425,10.9425,0,0,0-2.25-2.16,10.33,10.33,0,0,0-2.67-1.38,8.7885,8.7885,0,0,0-2.8506-.48,7.4488,7.4488,0,0,0-3.63.9,9.3471,9.3471,0,0,0-2.85,2.3995,11.8252,11.8252,0,0,0-1.8906,3.4209,11.6252,11.6252,0,0,0-.69,3.96,11.0979,11.0979,0,0,0,.75,4.08,10.6332,10.6332,0,0,0,2.0694,3.3594,10.158,10.158,0,0,0,3.03,2.28A8.248,8.248,0,0,0,282.5928,825.459Z"/><path d="M329.5713,831.0986a11.6756,11.6756,0,0,1-4.23-.75,10.1965,10.1965,0,0,1-3.36-2.0693,9.644,9.644,0,0,1-2.22-3.12,9.3943,9.3943,0,0,1-.8105-3.9,8.4112,8.4112,0,0,1,.96-4.0195,9.3836,9.3836,0,0,1,2.7305-3.12,13.242,13.242,0,0,1,4.2-2.04,18.8345,18.8345,0,0,1,5.37-.72,24.6435,24.6435,0,0,1,4.38.39,22.1864,22.1864,0,0,1,3.8994,1.05v-2.16a7.279,7.279,0,0,0-1.9795-5.43,7.7894,7.7894,0,0,0-5.7-1.95,13.7438,13.7438,0,0,0-4.95.9307,25.023,25.023,0,0,0-5.01,2.67l-2.04-4.2a22.251,22.251,0,0,1,12.6-4.08q6.48,0,10.08,3.3t3.6006,9.4805v11.34q0,2.1006,1.7393,2.16v5.64q-.96.18-1.6495.24c-.4609.039-.91.06-1.3505.06a4.239,4.239,0,0,1-2.97-.96,4.0985,4.0985,0,0,1-1.29-2.46l-.18-1.98a13.9963,13.9963,0,0,1-5.19,4.23A15.2438,15.2438,0,0,1,329.5713,831.0986Zm1.8-4.8593a11.8647,11.8647,0,0,0,4.53-.87,7.8075,7.8075,0,0,0,3.33-2.43,3.0436,3.0436,0,0,0,1.26-2.28v-4.1406a20.0184,20.0184,0,0,0-3.5693-1.02,19.6937,19.6937,0,0,0-3.69-.36,10.095,10.095,0,0,0-5.79,1.53,4.6894,4.6894,0,0,0-2.25,4.05,5.1081,5.1081,0,0,0,1.74,3.9306A6.3269,6.3269,0,0,0,331.3711,826.2393Z"/><path d="M387.7109,831.0986a12.2989,12.2989,0,0,1-6.66-1.8,13.44,13.44,0,0,1-4.5606-4.68v18.66h-6.6v-44.16h5.82v5.64a13.7046,13.7046,0,0,1,4.65-4.5,12.4682,12.4682,0,0,1,6.45-1.68,13.3461,13.3461,0,0,1,5.94,1.32,15.0985,15.0985,0,0,1,4.68,3.54,16.3365,16.3365,0,0,1,3.09,5.1591,17.3527,17.3527,0,0,1,1.11,6.1807,19.5524,19.5524,0,0,1-1.02,6.39,15.8325,15.8325,0,0,1-2.88,5.16,14.0359,14.0359,0,0,1-4.41,3.4795A12.2421,12.2421,0,0,1,387.7109,831.0986Zm-2.16-5.64a8.0458,8.0458,0,0,0,3.81-.9,9.46,9.46,0,0,0,2.94-2.3994,10.9792,10.9792,0,0,0,1.89-3.42,12.1115,12.1115,0,0,0,.66-3.96,11.113,11.113,0,0,0-.75-4.08,10.9845,10.9845,0,0,0-2.04-3.36,9.5057,9.5057,0,0,0-3.09-2.28,9.1142,9.1142,0,0,0-3.9-.84,8.0223,8.0223,0,0,0-2.64.48,10.4876,10.4876,0,0,0-2.58,1.3194,10.2936,10.2936,0,0,0-2.1,1.95,6.5844,6.5844,0,0,0-1.2608,2.4306v8.22a12.104,12.104,0,0,0,1.5606,2.7,11.4846,11.4846,0,0,0,2.13,2.16,10.3483,10.3483,0,0,0,2.55,1.4394A7.67,7.67,0,0,0,385.5508,825.459Z"/><path d="M425.21,804.8193a14.7659,14.7659,0,0,0-6.81,1.77,9.33,9.33,0,0,0-4.2305,4.71v19.2h-6.6v-31.38h6.12v7.02a14.3633,14.3633,0,0,1,4.2295-5.1895,10.2622,10.2622,0,0,1,5.61-2.13h.99a3.6163,3.6163,0,0,1,.6895.06Z"/><path d="M442.55,831.0986a16.3146,16.3146,0,0,1-6.6894-1.3193,15.3589,15.3589,0,0,1-8.3106-8.7305,17.49,17.49,0,0,1,0-12.42,15.3544,15.3544,0,0,1,3.27-5.1894,15.9659,15.9659,0,0,1,5.1-3.54,17.3087,17.3087,0,0,1,13.2608,0,15.9758,15.9758,0,0,1,5.1,3.54,15.3673,15.3673,0,0,1,3.2695,5.1894,17.4752,17.4752,0,0,1,0,12.42,15.3633,15.3633,0,0,1-3.2695,5.19,15.9613,15.9613,0,0,1-5.1,3.54A16.1753,16.1753,0,0,1,442.55,831.0986ZM433.19,814.8994a11.8735,11.8735,0,0,0,.72,4.1992,10.4137,10.4137,0,0,0,1.98,3.33,9.2576,9.2576,0,0,0,2.97,2.2207,8.8135,8.8135,0,0,0,7.38,0,9.0677,9.0677,0,0,0,2.97-2.25,10.8234,10.8234,0,0,0,1.98-3.36,12.5264,12.5264,0,0,0,0-8.37,10.76,10.76,0,0,0-1.98-3.39,9.0677,9.0677,0,0,0-2.97-2.25,8.51,8.51,0,0,0-3.69-.8105,8.1318,8.1318,0,0,0-3.63.84,9.4646,9.4646,0,0,0-2.97,2.28,11.185,11.185,0,0,0-2.01,3.3906A11.4972,11.4972,0,0,0,433.19,814.8994Z"/><path d="M481.4893,831.0986a12.6548,12.6548,0,0,1-11.1-6.3v5.7h-5.82v-43.8h6.6v18.3594a14.4558,14.4558,0,0,1,4.65-4.7393,13.0089,13.0089,0,0,1,12.2705-.3906,14.0039,14.0039,0,0,1,4.4092,3.6006,16.4072,16.4072,0,0,1,2.82,5.22,19.5033,19.5033,0,0,1,.99,6.21,17.2719,17.2719,0,0,1-1.1407,6.3,16.3942,16.3942,0,0,1-3.1191,5.13,14.4253,14.4253,0,0,1-4.71,3.45A13.8026,13.8026,0,0,1,481.4893,831.0986Zm-1.74-5.64a8.975,8.975,0,0,0,3.96-.87,9.8634,9.8634,0,0,0,3.0908-2.31,10.61,10.61,0,0,0,2.01-3.33,11.1211,11.1211,0,0,0,.72-3.99,12.0771,12.0771,0,0,0-.6895-4.05,11.0191,11.0191,0,0,0-1.9209-3.42,9.6733,9.6733,0,0,0-2.9394-2.37,7.9225,7.9225,0,0,0-3.75-.9,8.225,8.225,0,0,0-5.43,1.98,13.1792,13.1792,0,0,0-3.6309,4.8v8.28a6.5154,6.5154,0,0,0,1.2608,2.4893,10.1886,10.1886,0,0,0,2.1,1.95,9.7069,9.7069,0,0,0,2.58,1.29A8.5153,8.5153,0,0,0,479.749,825.459Z"/><path d="M502.3086,786.6992h6.6006v34.74a3.9083,3.9083,0,0,0,.8994,2.7294,3.2341,3.2341,0,0,0,2.5205.99,5.8571,5.8571,0,0,0,1.53-.24,17.2438,17.2438,0,0,0,1.6494-.54l.96,5.16a15.32,15.32,0,0,1-3.42,1.05,18.5505,18.5505,0,0,1-3.54.3906,7.246,7.246,0,0,1-5.31-1.86,7.0758,7.0758,0,0,1-1.8906-5.28Z"/><path d="M534.5283,831.0986a16.6841,16.6841,0,0,1-6.66-1.29,15.482,15.482,0,0,1-5.13-3.51,15.8155,15.8155,0,0,1-3.3-5.16,16.7052,16.7052,0,0,1-1.17-6.2393,16.9489,16.9489,0,0,1,1.17-6.27,16.1,16.1,0,0,1,3.3-5.22,15.2872,15.2872,0,0,1,5.13-3.54,16.8617,16.8617,0,0,1,6.7207-1.29,16.1549,16.1549,0,0,1,6.63,1.32,15.8738,15.8738,0,0,1,5.07,3.51,15.0571,15.0571,0,0,1,3.21,5.1,16.9616,16.9616,0,0,1,1.1094,6.09q0,.7207-.06,1.3506c-.04.42-.081.77-.12,1.05h-25.14a10.7239,10.7239,0,0,0,.9892,3.78,9.9192,9.9192,0,0,0,2.1006,2.91,9.2218,9.2218,0,0,0,6.39,2.55,10.5165,10.5165,0,0,0,2.61-.33,9.2149,9.2149,0,0,0,2.37-.96,8.4206,8.4206,0,0,0,1.92-1.53,7.1475,7.1475,0,0,0,1.3194-1.9794l5.6406,1.6191a13.0768,13.0768,0,0,1-5.37,5.79A16.6407,16.6407,0,0,1,534.5283,831.0986Zm9.54-18.6591a10.5764,10.5764,0,0,0-.9893-3.66,9.434,9.434,0,0,0-2.07-2.8506,9.2732,9.2732,0,0,0-2.94-1.83,9.61,9.61,0,0,0-3.54-.6591,9.382,9.382,0,0,0-6.42,2.4892,9.0212,9.0212,0,0,0-2.04,2.8506,10.9727,10.9727,0,0,0-.96,3.66Z"/><path d="M604.0078,830.499h-6.6v-17.58q0-4.3784-1.44-6.42a4.8194,4.8194,0,0,0-4.2-2.04,7.508,7.508,0,0,0-5.13,2.07,11.6484,11.6484,0,0,0-3.33,5.37v18.6h-6.6v-17.58q0-4.44-1.44-6.45a4.7817,4.7817,0,0,0-4.14-2.01,7.68,7.68,0,0,0-5.16,2.04,11.3507,11.3507,0,0,0-3.36,5.34v18.66h-6.6v-31.38h6v6.3a13.2691,13.2691,0,0,1,4.89-5.07,13.4945,13.4945,0,0,1,6.9306-1.7695,8.3933,8.3933,0,0,1,8.94,7.14,14.3719,14.3719,0,0,1,4.98-5.31,12.8687,12.8687,0,0,1,6.84-1.83,9.1272,9.1272,0,0,1,4.59,1.05,8.125,8.125,0,0,1,2.91,2.79,11.5316,11.5316,0,0,1,1.5,4.05,27.3976,27.3976,0,0,1,.42,4.8906Z"/><path d="M637.8467,831.0986a24.0435,24.0435,0,0,1-7.53-1.23,19.0718,19.0718,0,0,1-6.45-3.51l2.64-4.2a24.3234,24.3234,0,0,0,5.58,3.09,15.74,15.74,0,0,0,5.6407,1.05,8.29,8.29,0,0,0,4.6494-1.14,3.6666,3.6666,0,0,0,1.71-3.24,2.999,2.999,0,0,0-1.92-2.88,38.55,38.55,0,0,0-6-1.9805q-2.94-.7779-5.04-1.5a12.9272,12.9272,0,0,1-3.42-1.68,5.8905,5.8905,0,0,1-1.92-2.22,7.0712,7.0712,0,0,1-.6-3.0606,9.4027,9.4027,0,0,1,.93-4.26,9.1446,9.1446,0,0,1,2.58-3.1494,11.5505,11.5505,0,0,1,3.87-1.95,16.79,16.79,0,0,1,4.8-.66,19.7064,19.7064,0,0,1,6.6006,1.08,17.1979,17.1979,0,0,1,5.46,3.12l-2.82,3.96a14.7164,14.7164,0,0,0-9.3-3.4805,7.9545,7.9545,0,0,0-4.23,1.05,3.6214,3.6214,0,0,0-1.71,3.33,3.3387,3.3387,0,0,0,.36,1.62,3.0579,3.0579,0,0,0,1.17,1.1406,9.5524,9.5524,0,0,0,2.1.8692q1.29.3911,3.21.87,3.18.7808,5.49,1.5605a15.0875,15.0875,0,0,1,3.81,1.83,6.7983,6.7983,0,0,1,2.2207,2.46,7.3826,7.3826,0,0,1,.72,3.39,8.4955,8.4955,0,0,1-3.39,7.11Q643.6655,831.1,637.8467,831.0986Z"/><path d="M670.3047,831.0986a16.3154,16.3154,0,0,1-6.69-1.3193,15.3591,15.3591,0,0,1-8.31-8.7305,17.4881,17.4881,0,0,1,0-12.42,15.3544,15.3544,0,0,1,3.27-5.1894,15.9648,15.9648,0,0,1,5.1-3.54,17.3085,17.3085,0,0,1,13.2607,0,15.9774,15.9774,0,0,1,5.1,3.54,15.3673,15.3673,0,0,1,3.2695,5.1894,17.4752,17.4752,0,0,1,0,12.42,15.3633,15.3633,0,0,1-3.2695,5.19,15.9629,15.9629,0,0,1-5.1,3.54A16.1749,16.1749,0,0,1,670.3047,831.0986Zm-9.3594-16.1992a11.8735,11.8735,0,0,0,.72,4.1992,10.4157,10.4157,0,0,0,1.9805,3.33,9.2583,9.2583,0,0,0,2.97,2.2207,8.8137,8.8137,0,0,0,7.38,0,9.0663,9.0663,0,0,0,2.97-2.25,10.8236,10.8236,0,0,0,1.9805-3.36,12.528,12.528,0,0,0,0-8.37,10.7607,10.7607,0,0,0-1.9805-3.39,9.0663,9.0663,0,0,0-2.97-2.25,8.51,8.51,0,0,0-3.69-.8105,8.1318,8.1318,0,0,0-3.63.84,9.4646,9.4646,0,0,0-2.97,2.28,11.181,11.181,0,0,0-2.01,3.3906A11.4951,11.4951,0,0,0,660.9453,814.8994Z"/><path d="M692.3838,786.6992h6.6006v34.74a3.9083,3.9083,0,0,0,.8994,2.7294,3.2341,3.2341,0,0,0,2.5205.99,5.8571,5.8571,0,0,0,1.53-.24,17.2438,17.2438,0,0,0,1.6494-.54l.96,5.16a15.3179,15.3179,0,0,1-3.42,1.05,18.5505,18.5505,0,0,1-3.54.3906,7.246,7.246,0,0,1-5.31-1.86,7.0754,7.0754,0,0,1-1.8906-5.28Z"/><path d="M718.5449,830.499l-12-31.38h6.7793l9,25.8,9.0606-25.8h6.24l-12,31.38Z"/><path d="M755.4453,831.0986a16.6841,16.6841,0,0,1-6.66-1.29,15.482,15.482,0,0,1-5.13-3.51,15.8139,15.8139,0,0,1-3.3-5.16,16.7052,16.7052,0,0,1-1.17-6.2393,16.949,16.949,0,0,1,1.17-6.27,16.0987,16.0987,0,0,1,3.3-5.22,15.2872,15.2872,0,0,1,5.13-3.54,16.8617,16.8617,0,0,1,6.7207-1.29,16.1541,16.1541,0,0,1,6.63,1.32,15.8731,15.8731,0,0,1,5.07,3.51,15.0571,15.0571,0,0,1,3.21,5.1,16.9616,16.9616,0,0,1,1.1094,6.09q0,.7207-.06,1.3506c-.04.42-.081.77-.12,1.05h-25.14a10.7239,10.7239,0,0,0,.9892,3.78,9.9192,9.9192,0,0,0,2.1006,2.91,9.2218,9.2218,0,0,0,6.39,2.55,10.5167,10.5167,0,0,0,2.61-.33,9.2149,9.2149,0,0,0,2.37-.96,8.4228,8.4228,0,0,0,1.92-1.53,7.1475,7.1475,0,0,0,1.3194-1.9794l5.6406,1.6191a13.0768,13.0768,0,0,1-5.37,5.79A16.6407,16.6407,0,0,1,755.4453,831.0986Zm9.54-18.6591a10.5764,10.5764,0,0,0-.9893-3.66,9.434,9.434,0,0,0-2.07-2.8506,9.2732,9.2732,0,0,0-2.94-1.83,9.61,9.61,0,0,0-3.54-.6591,9.3815,9.3815,0,0,0-6.42,2.4892,9.02,9.02,0,0,0-2.04,2.8506,10.97,10.97,0,0,0-.96,3.66Z"/><path d="M794.5645,804.8193a14.7659,14.7659,0,0,0-6.81,1.77,9.33,9.33,0,0,0-4.2305,4.71v19.2h-6.6v-31.38h6.12v7.02a14.3633,14.3633,0,0,1,4.23-5.1895,10.2619,10.2619,0,0,1,5.61-2.13h.99a3.6163,3.6163,0,0,1,.6895.06Z"/><path d="M796.3047,830.499v-7.68h5.46v7.68Z"/><path d="M955,45V955H45V45H955m20-20H25V975H975V25Z"/><path d="M930,70V930H70V70H930m10-10H60V940H940V60Z"/></svg>